# xmcd
#
# Track frame offsets:
# 150
# 15523
# 32923
# 49105
#
# Disc length: 929 seconds
#
# Revision: 0
# Processed by: cddbd v1.5.2PL0 Copyright (c) Steve Scherf et al.
# Submitted via: Audion 3.0.2 (http://www.panic.com/audion/)
#
DISCID=28039f04
DTITLE=Ribbony - Ribbony EP
DYEAR=1900
DGENRE=
TTITLE0=Something Changed
TTITLE1=You'd Be My Pillow
TTITLE2=Watch Me
TTITLE3=Ten More Minutes
EXTD=
EXTT0=
EXTT1=
EXTT2=
EXTT3=
PLAYORDER=
